<svg width="698" height="298" viewBox="0 0 698 298" fill="none" xmlns="http://www.w3.org/2000/svg">
<g filter="url(#filter0_d)">
<path d="M28.5634 83.5736C35.7903 83.5736 41.7604 81.0599 46.4736 76.0325C51.2915 71.0051 53.7004 66.6061 53.7004 62.8356C53.7004 59.484 47.9399 57.2845 36.4187 56.2371C32.1245 55.8181 28.1445 54.4042 24.4786 51.9952C20.9176 49.5863 19.137 46.0775 19.137 41.4691C19.137 39.898 19.9749 35.8656 21.6507 29.3719C23.3265 22.7734 24.1644 18.4792 24.1644 16.4892C24.1644 14.4991 24.1121 13.2423 24.0073 12.7186C24.0073 12.1949 23.7455 11.6712 23.2218 11.1475C22.6981 10.6239 21.9649 10.362 21.0223 10.362C18.7181 10.362 16.2567 14.1849 13.6383 21.8308C11.0199 29.4766 9.71064 36.0227 9.71064 41.4691C9.71064 46.9154 11.0722 55.085 13.7954 65.9777C14.0049 66.6061 14.1096 67.2345 14.1096 67.863C14.1096 71.0051 12.5386 72.5762 9.39643 72.5762C6.88273 72.5762 5.20693 71.0051 4.36902 67.863C1.64585 56.9703 0.284258 48.1723 0.284258 41.4691C0.284258 35.3943 1.75058 27.539 4.68324 17.9031C6.14956 13.0852 8.29669 9.05279 11.1246 5.80593C14.0573 2.55906 17.5136 0.935628 21.4936 0.935628C25.4737 0.935628 28.4587 2.24485 30.4487 4.86329C32.5434 7.48173 33.5908 10.9381 33.5908 15.2323C33.5908 19.4218 32.7529 24.7634 31.0771 31.2572C29.4013 37.6462 28.5634 41.0501 28.5634 41.4691C28.5634 44.8207 34.324 47.0202 45.8451 48.0676C50.1394 48.4865 54.067 49.9005 57.6281 52.3094C61.2939 54.7184 63.1268 58.2271 63.1268 62.8356C63.1268 69.2246 59.8276 75.8754 53.2291 82.7881C46.7354 89.596 38.5135 93 28.5634 93C23.7455 93 19.3465 91.6384 15.3665 88.9152C11.3864 86.1921 9.39643 83.8878 9.39643 82.0025C9.39643 78.8604 10.9675 77.2894 14.1096 77.2894C14.8428 77.2894 16.6757 78.3367 19.6083 80.4315C22.6457 82.5262 25.6308 83.5736 28.5634 83.5736ZM77.6543 71.9477C77.8637 71.6335 78.3351 69.3817 79.0682 65.1922C79.9061 61.0027 80.8488 56.9179 81.8961 52.9379C83.0483 48.8531 85.0383 45.0825 87.8662 41.6262C90.7988 38.1699 94.3076 36.4417 98.3923 36.4417C106.352 36.4417 113.056 38.5364 118.502 42.7259C124.053 46.8107 126.829 52.1 126.829 58.5937C126.829 65.0874 127.719 70.9004 129.499 76.0325C131.28 81.0599 133.637 83.5736 136.569 83.5736C138.559 83.5736 141.021 82.9452 143.953 81.6883C148.666 79.8031 151.442 78.8604 152.28 78.8604C155.422 78.8604 156.993 80.4315 156.993 83.5736C156.993 85.8778 155.422 87.5536 152.28 88.601C146.415 91.5337 141.125 93 136.412 93C131.804 93 127.981 91.0624 124.943 87.1871C121.906 83.207 119.864 78.8081 118.816 73.9901C117.874 69.1722 117.402 63.9877 117.402 58.4366C117.402 54.7708 115.622 51.7857 112.061 49.4815C108.499 47.0726 103.996 45.8681 98.5494 45.8681C94.1504 45.8681 90.6941 52.8855 88.1804 66.9203C87.133 72.3667 86.3999 75.5088 85.9809 76.3467C84.2004 80.0125 79.3301 83.5736 71.37 87.03C69.4847 87.8679 67.966 88.2868 66.8139 88.2868C63.6718 88.2868 62.1007 86.7157 62.1007 83.5736C62.1007 81.5836 63.6718 79.9602 66.8139 78.7033C72.9934 76.1896 76.6069 73.9378 77.6543 71.9477ZM185.907 15.0752C187.583 15.0752 189.311 15.8607 191.091 17.4318C192.872 18.8981 193.762 20.4692 193.762 22.145C193.762 23.7161 193.029 24.9205 191.563 25.7584C190.201 26.5963 188.682 27.0153 187.006 27.0153C185.331 27.0153 183.917 26.2821 182.765 24.8158C181.717 23.2447 181.194 21.5689 181.194 19.7884C181.194 16.6463 182.765 15.0752 185.907 15.0752ZM171.767 73.5188C165.902 79.8031 159.932 84.3068 153.857 87.03C151.972 87.8679 150.453 88.2868 149.301 88.2868C146.159 88.2868 144.588 86.7157 144.588 83.5736C144.588 81.5836 146.159 79.9602 149.301 78.7033C150.977 78.0749 153.176 76.818 155.899 74.9328C158.727 73.0475 160.613 71.6335 161.555 70.6909C162.498 69.7482 164.121 68.0201 166.426 65.5064C168.835 62.9927 170.72 61.1074 172.081 59.8505C173.443 58.489 175.276 57.1274 177.58 55.7658C179.989 54.4042 182.189 53.7234 184.179 53.7234C188.263 53.7234 191.405 55.1897 193.605 58.1224C195.804 61.055 197.114 64.3019 197.533 67.863C198.685 77.2894 200.518 82.0025 203.031 82.0025C205.021 82.0025 207.587 81.4789 210.73 80.4315C213.872 79.3841 215.6 78.8604 215.914 78.8604C219.056 78.8604 220.627 80.4315 220.627 83.5736C220.627 85.8778 219.056 87.5536 215.914 88.601C210.258 90.4863 205.65 91.4289 202.089 91.4289C198.632 91.4289 195.804 89.9626 193.605 87.03C191.405 84.0973 190.096 80.8504 189.677 77.2894C188.525 67.863 186.692 63.1498 184.179 63.1498C182.817 63.1498 181.246 64.04 179.465 65.8206C177.79 67.4964 176.428 68.858 175.381 69.9054C174.333 70.848 173.129 72.0525 171.767 73.5188ZM283.929 80.1173C283.929 80.1173 285.605 79.6983 288.956 78.8604C292.098 78.8604 293.669 80.4315 293.669 83.5736C293.669 85.8778 292.098 87.5536 288.956 88.601C287.071 89.2294 285.186 89.5437 283.3 89.5437C281.52 89.5437 279.792 89.1247 278.116 88.2868C276.44 87.4489 275.131 86.1921 274.188 84.5163C272.617 81.7931 271.465 78.8604 270.732 75.7183L270.104 73.0475C268.323 76.0849 263.976 79.646 257.064 83.7307C250.256 87.8155 242.976 89.8579 235.226 89.8579C231.036 89.8579 227.371 88.2868 224.228 85.1447C221.086 82.0025 219.515 78.3367 219.515 74.1472C219.515 63.9877 223.705 55.1897 232.084 47.7533C240.463 40.2122 248.947 36.4417 257.535 36.4417C262.248 36.4417 266.281 37.332 269.632 39.1125C273.089 40.7883 274.817 42.5165 274.817 44.297C274.817 47.4391 273.246 49.0102 270.104 49.0102C269.475 49.0102 267.956 48.4865 265.547 47.4391C263.138 46.3918 260.468 45.8681 257.535 45.8681C251.879 45.8681 245.7 48.6436 238.996 54.1947C232.293 59.6411 228.942 66.2919 228.942 74.1472C228.942 75.7183 229.57 77.1846 230.827 78.5462C232.188 79.8031 233.655 80.4315 235.226 80.4315C241.405 80.4315 247.166 78.8081 252.508 75.5612C257.849 72.2096 261.253 69.4864 262.72 67.3917C264.186 65.1922 265.39 63.2021 266.333 61.4216C267.276 59.6411 267.956 58.489 268.375 57.9653C268.899 57.3368 269.946 57.0226 271.517 57.0226C273.089 57.0226 274.293 57.5987 275.131 58.7508C275.969 59.9029 276.754 61.7358 277.488 64.2495C278.221 66.6585 278.954 69.3817 279.687 72.4191C280.42 75.4564 281.049 77.4988 281.572 78.5462C282.201 79.5936 282.986 80.1173 283.929 80.1173ZM385.65 88.601C379.995 90.4863 375.596 91.4289 372.453 91.4289C369.311 91.4289 366.85 90.2768 365.069 87.9726C363.289 85.6684 361.665 81.7407 360.199 76.1896C358.838 70.6385 357.79 67.863 357.057 67.863C354.334 67.863 351.454 72.0525 348.416 80.4315C347.264 83.5736 345.379 86.4539 342.76 89.0723C340.142 91.6908 336.843 93 332.863 93C328.987 93 325.95 91.2718 323.75 87.8155C321.551 84.3591 320.242 80.5886 319.823 76.5038C319.509 72.4191 318.985 68.6485 318.252 65.1922C317.519 61.7358 316.314 60.0076 314.638 60.0076C313.486 60.0076 312.648 60.3219 312.125 60.9503C311.601 61.5787 311.13 62.2071 310.711 62.8356C310.396 63.3593 310.03 63.9353 309.611 64.5637C309.297 65.0874 308.878 65.8206 308.354 66.7632C307.935 67.7059 307.411 68.7009 306.783 69.7482C304.688 73.4141 303.012 76.1372 301.756 77.9178C299.242 81.8978 295.524 84.9352 290.601 87.03C288.716 87.8679 287.197 88.2868 286.045 88.2868C282.903 88.2868 281.332 86.7157 281.332 83.5736C281.332 81.5836 283.008 79.9602 286.359 78.7033C289.711 77.4465 292.067 75.6659 293.429 73.3617C294.895 70.9527 296.519 68.2296 298.299 65.1922C300.08 62.1548 301.284 60.1124 301.913 59.065C302.646 58.0176 303.536 56.7608 304.583 55.2945C305.631 53.7234 306.573 52.7284 307.411 52.3094C309.611 51.1573 312.02 50.5813 314.638 50.5813C318.933 50.5813 322.179 52.3094 324.379 55.7658C326.578 59.2221 327.835 62.9927 328.149 67.0774C328.568 71.1622 329.144 74.9328 329.878 78.3891C330.611 81.8454 331.815 83.5736 333.491 83.5736C335.167 83.5736 336.738 82.2644 338.204 79.646C339.775 77.0275 341.137 74.1472 342.289 71.0051C343.441 67.863 345.274 64.9827 347.788 62.3642C350.406 59.7458 353.496 58.4366 357.057 58.4366C359.78 58.4366 361.77 59.1174 363.027 60.479C364.284 61.7358 365.174 62.7308 365.698 63.464C366.326 64.1972 366.85 65.2969 367.269 66.7632C367.793 68.2296 368.159 69.3293 368.369 70.0625C368.578 70.6909 368.892 71.843 369.311 73.5188C370.568 79.2794 371.72 82.1073 372.768 82.0025C374.758 82.0025 377.324 81.4789 380.466 80.4315C383.608 79.3841 385.336 78.8604 385.65 78.8604C388.793 78.8604 390.364 80.4315 390.364 83.5736C390.364 85.8778 388.793 87.5536 385.65 88.601ZM0.598471 211.589L0.284258 209.704C0.284258 209.494 0.284258 209.285 0.284258 209.075C0.284258 205.933 1.85532 204.362 4.99745 204.362C7.82537 204.362 9.39643 205.776 9.71064 208.604C11.177 221.591 14.1096 236.359 18.5086 252.908C22.9076 269.352 26.2592 277.574 28.5634 277.574C29.6108 277.574 30.6582 273.908 31.7055 266.576C32.8577 259.245 33.9574 251.023 35.0048 241.91C36.1569 232.694 37.0995 226.776 37.8327 224.157C39.718 217.873 43.1743 214.731 48.2017 214.731C51.2391 214.731 53.491 215.569 54.9573 217.245C56.2141 218.816 57.1044 220.335 57.6281 221.801C58.2565 223.162 58.7802 224.315 59.1992 225.257C59.7229 226.2 61.1368 231.28 63.441 240.496C69.5158 265.215 73.6006 277.574 75.6953 277.574C76.5332 277.574 77.6854 273.332 79.1517 264.848C80.618 256.26 82.4509 245.262 84.6504 231.856C86.9546 218.449 88.7352 209.337 89.992 204.519C91.3536 199.596 92.3486 196.769 92.9771 196.035C93.7102 195.302 94.7576 194.936 96.1192 194.936C99.2613 194.936 100.832 196.507 100.832 199.649C100.832 200.591 100.728 201.482 100.518 202.32C97.8997 211.537 95.0194 226.043 91.8773 245.838C88.8399 265.634 86.7975 276.631 85.7502 278.83C84.7028 281.03 83.9172 282.549 83.3936 283.387C82.9746 284.12 82.0843 284.905 80.7228 285.743C79.3612 286.581 77.6854 287 75.6953 287C70.4585 287 66.5832 283.858 64.0695 277.574C62.2889 273.384 60.2465 266.733 57.9423 257.621C55.7428 248.404 53.7528 240.549 51.9723 234.055C50.2965 227.457 49.0396 224.157 48.2017 224.157C47.3638 224.157 46.4212 227.876 45.3738 235.312C44.4312 242.644 43.3838 250.866 42.2317 259.978C41.1843 268.985 40.2417 274.589 39.4038 276.788C38.5659 278.988 37.8851 280.611 37.3614 281.658C36.8377 282.601 35.7379 283.753 34.0621 285.115C32.4911 286.372 30.7105 287 28.7205 287C26.8352 287 25.2118 286.738 23.8502 286.214C22.5934 285.691 21.4413 284.801 20.3939 283.544C19.3465 282.182 17.8278 279.616 15.8378 275.845C13.9525 272.075 11.2293 263.225 7.66826 249.294C4.21192 235.364 1.85532 222.796 0.598471 211.589ZM141.009 209.075C142.684 209.075 144.413 209.861 146.193 211.432C147.974 212.898 148.864 214.469 148.864 216.145C148.864 217.716 148.131 218.921 146.664 219.758C145.303 220.596 143.784 221.015 142.108 221.015C140.433 221.015 139.019 220.282 137.867 218.816C136.819 217.245 136.295 215.569 136.295 213.788C136.295 210.646 137.867 209.075 141.009 209.075ZM126.869 267.519C121.004 273.803 115.034 278.307 108.959 281.03C107.074 281.868 105.555 282.287 104.403 282.287C101.261 282.287 99.6897 280.716 99.6897 277.574C99.6897 275.584 101.261 273.96 104.403 272.703C106.079 272.075 108.278 270.818 111.001 268.933C113.829 267.047 115.715 265.634 116.657 264.691C117.6 263.748 119.223 262.02 121.527 259.506C123.936 256.993 125.822 255.107 127.183 253.851C128.545 252.489 130.378 251.127 132.682 249.766C135.091 248.404 137.29 247.723 139.28 247.723C143.365 247.723 146.507 249.19 148.707 252.122C150.906 255.055 152.216 258.302 152.635 261.863C153.787 271.289 155.62 276.003 158.133 276.003C160.123 276.003 162.689 275.479 165.831 274.431C168.974 273.384 170.702 272.86 171.016 272.86C174.158 272.86 175.729 274.431 175.729 277.574C175.729 279.878 174.158 281.554 171.016 282.601C165.36 284.486 160.752 285.429 157.191 285.429C153.734 285.429 150.906 283.963 148.707 281.03C146.507 278.097 145.198 274.85 144.779 271.289C143.627 261.863 141.794 257.15 139.28 257.15C137.919 257.15 136.348 258.04 134.567 259.821C132.891 261.496 131.53 262.858 130.483 263.905C129.435 264.848 128.231 266.052 126.869 267.519ZM208.552 244.11C221.54 231.122 228.033 218.187 228.033 205.305C228.033 193.993 225.415 188.337 220.178 188.337C217.455 188.337 214.732 192.16 212.008 199.806C209.076 207.975 207.61 218.187 207.61 230.442C207.61 235.574 207.924 240.13 208.552 244.11ZM265.11 253.693C270.976 249.294 275.689 244.215 279.25 238.454C282.811 232.694 284.592 227.195 284.592 221.958C284.592 216.721 284.173 212.532 283.335 209.389C282.497 206.247 281.45 204.048 280.193 202.791C277.888 200.487 275.689 199.335 273.594 199.335C271.918 199.335 270.347 200.33 268.881 202.32C267.519 204.205 266.42 206.247 265.582 208.447C263.592 213.684 262.597 220.911 262.597 230.127C262.597 239.344 263.435 247.2 265.11 253.693ZM204.467 260.449C195.879 267.466 187.029 273.436 177.916 278.359C173.098 280.978 169.799 282.287 168.019 282.287C164.877 282.287 163.305 280.716 163.305 277.574C163.305 275.584 164.719 274.065 167.547 273.018C170.375 271.97 174.931 269.509 181.216 265.634C187.5 261.758 193.994 256.993 200.697 251.337C199.021 245.262 198.183 238.297 198.183 230.442C198.183 215.464 200.278 203.158 204.467 193.522C208.657 183.781 213.737 178.911 219.707 178.911C231.542 178.911 237.46 187.447 237.46 204.519C237.46 221.591 228.871 238.14 211.694 254.165C215.36 261.392 222.378 265.005 232.747 265.005C240.811 265.005 248.876 262.91 256.941 258.721C254.427 251.18 253.17 241.23 253.17 228.871C253.17 216.512 255.108 206.928 258.983 200.12C262.859 193.312 267.572 189.908 273.123 189.908C278.674 189.908 283.544 192.37 287.734 197.292C291.923 202.11 294.018 210.018 294.018 221.015C294.018 228.452 291.714 235.94 287.105 243.482C282.497 250.918 276.37 257.255 268.724 262.491C272.076 268.461 275.951 272.494 280.35 274.589C284.749 276.579 290.876 277.574 298.731 277.574C301.35 277.574 305.382 276.788 310.828 275.217C316.275 273.646 319.155 272.86 319.469 272.86C322.611 272.86 324.182 274.431 324.182 277.574C324.182 279.878 322.611 281.554 319.469 282.601C310.671 285.534 303.759 287 298.731 287C289.305 287 281.607 285.534 275.637 282.601C269.667 279.668 264.692 274.589 260.711 267.362C251.495 272.075 242.173 274.431 232.747 274.431C219.445 274.431 210.018 269.771 204.467 260.449ZM353.084 209.075C354.76 209.075 356.488 209.861 358.268 211.432C360.049 212.898 360.939 214.469 360.939 216.145C360.939 217.716 360.206 218.921 358.74 219.758C357.378 220.596 355.859 221.015 354.184 221.015C352.508 221.015 351.094 220.282 349.942 218.816C348.894 217.245 348.371 215.569 348.371 213.788C348.371 210.646 349.942 209.075 353.084 209.075ZM338.944 267.519C333.079 273.803 327.109 278.307 321.034 281.03C319.149 281.868 317.63 282.287 316.478 282.287C313.336 282.287 311.765 280.716 311.765 277.574C311.765 275.584 313.336 273.96 316.478 272.703C318.154 272.075 320.353 270.818 323.077 268.933C325.905 267.047 327.79 265.634 328.732 264.691C329.675 263.748 331.299 262.02 333.603 259.506C336.012 256.993 337.897 255.107 339.259 253.851C340.62 252.489 342.453 251.127 344.757 249.766C347.166 248.404 349.366 247.723 351.356 247.723C355.441 247.723 358.583 249.19 360.782 252.122C362.982 255.055 364.291 258.302 364.71 261.863C365.862 271.289 367.695 276.003 370.209 276.003C372.199 276.003 374.765 275.479 377.907 274.431C381.049 273.384 382.777 272.86 383.091 272.86C386.233 272.86 387.804 274.431 387.804 277.574C387.804 279.878 386.233 281.554 383.091 282.601C377.435 284.486 372.827 285.429 369.266 285.429C365.81 285.429 362.982 283.963 360.782 281.03C358.583 278.097 357.273 274.85 356.855 271.289C355.702 261.863 353.869 257.15 351.356 257.15C349.994 257.15 348.423 258.04 346.643 259.821C344.967 261.496 343.605 262.858 342.558 263.905C341.51 264.848 340.306 266.052 338.944 267.519ZM451.106 274.117C451.106 274.117 452.782 273.698 456.133 272.86C459.276 272.86 460.847 274.431 460.847 277.574C460.847 279.878 459.276 281.554 456.133 282.601C454.248 283.229 452.363 283.544 450.478 283.544C448.697 283.544 446.969 283.125 445.293 282.287C443.617 281.449 442.308 280.192 441.365 278.516C439.794 275.793 438.642 272.86 437.909 269.718L437.281 267.047C435.5 270.085 431.154 273.646 424.241 277.731C417.433 281.815 410.154 283.858 402.403 283.858C398.214 283.858 394.548 282.287 391.406 279.145C388.263 276.003 386.692 272.337 386.692 268.147C386.692 257.988 390.882 249.19 399.261 241.753C407.64 234.212 416.124 230.442 424.712 230.442C429.425 230.442 433.458 231.332 436.809 233.112C440.266 234.788 441.994 236.516 441.994 238.297C441.994 241.439 440.423 243.01 437.281 243.01C436.652 243.01 435.134 242.487 432.725 241.439C430.316 240.392 427.645 239.868 424.712 239.868C419.056 239.868 412.877 242.644 406.174 248.195C399.47 253.641 396.119 260.292 396.119 268.147C396.119 269.718 396.747 271.185 398.004 272.546C399.366 273.803 400.832 274.431 402.403 274.431C408.583 274.431 414.343 272.808 419.685 269.561C425.026 266.21 428.43 263.486 429.897 261.392C431.363 259.192 432.568 257.202 433.51 255.422C434.453 253.641 435.134 252.489 435.553 251.965C436.076 251.337 437.124 251.023 438.695 251.023C440.266 251.023 441.47 251.599 442.308 252.751C443.146 253.903 443.932 255.736 444.665 258.25C445.398 260.658 446.131 263.382 446.864 266.419C447.597 269.456 448.226 271.499 448.749 272.546C449.378 273.594 450.163 274.117 451.106 274.117ZM582.364 250.866C589.486 250.866 593.675 255.893 594.932 265.948C595.037 266.471 595.142 267.414 595.246 268.776C595.456 270.033 595.613 271.028 595.718 271.761C595.822 272.494 595.979 273.07 596.189 273.489C596.189 273.908 596.294 274.327 596.503 274.746C596.817 275.584 597.341 276.003 598.074 276.003C600.064 276.003 602.63 275.479 605.772 274.431C608.915 273.384 610.643 272.86 610.957 272.86C614.099 272.86 615.67 274.431 615.67 277.574C615.67 279.878 614.099 281.554 610.957 282.601C605.301 284.486 600.902 285.429 597.76 285.429C590.952 285.429 586.867 279.354 585.506 267.205C584.877 262.596 583.83 260.292 582.364 260.292C579.221 260.292 575.241 263.958 570.424 271.289C568.643 274.013 566.286 276.526 563.354 278.83C560.421 281.135 557.436 282.287 554.399 282.287C551.361 282.287 548.952 281.239 547.172 279.145C545.391 277.05 544.239 275.06 543.715 273.175C543.087 271.08 542.092 266.524 540.73 259.506C539.369 252.489 538.426 248.771 537.902 248.352C537.484 247.933 537.117 247.723 536.803 247.723C535.336 247.723 534.027 248.666 532.875 250.551C531.828 252.332 530.623 254.846 529.262 258.092C527.9 261.339 526.591 264.691 525.334 268.147C524.182 271.499 523.239 274.013 522.506 275.688C521.773 277.259 520.778 279.092 519.521 281.187C517.217 285.062 514.075 287 510.095 287C507.371 287 505.067 286.057 503.182 284.172C501.297 282.287 499.83 279.878 498.783 276.945C496.898 271.08 495.903 265.11 495.798 259.035C495.798 252.856 495.17 248.142 493.913 244.895C492.761 241.544 491.347 239.868 489.671 239.868C484.224 239.868 480.14 243.22 477.416 249.923C476.16 253.17 474.798 257.778 473.332 263.748C471.237 271.813 466.262 277.521 458.407 280.873C456.731 281.815 455.003 282.287 453.222 282.287C450.08 282.287 448.509 280.716 448.509 277.574C448.509 275.584 450.08 273.96 453.222 272.703C454.479 272.18 455.16 271.918 455.264 271.918C455.474 271.813 455.893 271.604 456.521 271.289C457.15 270.975 457.569 270.766 457.778 270.661C457.988 270.451 458.354 270.19 458.878 269.875C459.506 269.456 459.925 269.09 460.135 268.776C460.449 268.357 460.816 267.885 461.235 267.362C461.758 266.838 462.125 266.314 462.334 265.791C463.172 264.22 463.905 262.177 464.534 259.663C465.162 257.15 465.738 255.055 466.262 253.379C466.786 251.703 467.781 249.137 469.247 245.681C470.713 242.12 472.232 239.449 473.803 237.669C475.374 235.888 477.521 234.265 480.244 232.798C483.072 231.227 486.476 230.442 490.456 230.442C494.541 230.442 497.997 232.798 500.825 237.511C503.758 242.12 505.224 249.19 505.224 258.721C505.224 262.072 505.591 266.052 506.324 270.661C507.162 275.269 508.419 277.574 510.095 277.574C510.933 277.574 511.823 276.474 512.765 274.274C513.708 271.97 514.494 270.033 515.122 268.461C515.75 266.786 516.484 264.796 517.322 262.491C520.464 253.589 523.553 247.357 526.591 243.796C529.628 240.13 533.032 238.297 536.803 238.297C541.202 238.297 544.344 240.287 546.229 244.267C547.8 247.723 548.9 251.127 549.528 254.479C551.623 266.733 553.142 272.86 554.084 272.86C557.227 272.86 561.207 269.195 566.025 261.863C567.805 259.14 570.162 256.626 573.094 254.322C576.027 252.018 579.117 250.866 582.364 250.866ZM607.972 272.703C613.628 270.399 618.079 267.99 621.326 265.476C624.573 262.858 628.553 259.087 633.266 254.165C637.979 249.242 641.069 246.152 642.535 244.895C647.563 240.496 652.904 238.297 658.56 238.297C662.017 238.297 665.787 239.135 669.872 240.811C674.061 242.487 677.937 245.472 681.498 249.766C685.059 254.06 686.839 259.192 686.839 265.162C686.839 271.028 683.383 276.16 676.47 280.559C669.558 284.853 660.445 287 649.134 287C645.992 287 644.421 285.429 644.421 282.287C644.421 279.145 645.992 277.574 649.134 277.574C657.722 277.574 664.583 276.212 669.715 273.489C674.847 270.661 677.413 267.833 677.413 265.005C677.413 261.13 676.156 257.778 673.642 254.95C669.243 250.132 664.216 247.723 658.56 247.723C655.313 247.723 652.119 249.085 648.977 251.808C648.034 252.646 644.997 255.683 639.865 260.92C634.837 266.157 630.648 270.085 627.296 272.703C624.049 275.322 620.279 277.574 615.984 279.459C611.795 281.344 609.124 282.287 607.972 282.287C604.83 282.287 603.259 280.716 603.259 277.574C603.259 275.584 604.83 273.96 607.972 272.703Z" fill="white"/>
</g>
<defs>
<filter id="filter0_d" x="0.284256" y="0.935638" width="697.187" height="296.696" filterUnits="userSpaceOnUse" color-interpolation-filters="sRGB">
<feFlood flood-opacity="0" result="BackgroundImageFix"/>
<feColorMatrix in="SourceAlpha" type="matrix" values="0 0 0 0 0 0 0 0 0 0 0 0 0 0 0 0 0 0 127 0" result="hardAlpha"/>
<feOffset dx="6.37918" dy="6.37918"/>
<feGaussianBlur stdDeviation="2.12639"/>
<feComposite in2="hardAlpha" operator="out"/>
<feColorMatrix type="matrix" values="0 0 0 0 0 0 0 0 0 0 0 0 0 0 0 0 0 0 0.25 0"/>
<feBlend mode="normal" in2="BackgroundImageFix" result="effect1_dropShadow"/>
<feBlend mode="normal" in="SourceGraphic" in2="effect1_dropShadow" result="shape"/>
</filter>
</defs>
</svg>
