<svg width="397" height="168" viewBox="0 0 397 168" fill="none" xmlns="http://www.w3.org/2000/svg">
<g filter="url(#filter0_d)">
<path d="M106.928 47.6417C111.036 47.6417 114.429 46.2128 117.109 43.3551C119.847 40.4973 121.217 37.9968 121.217 35.8535C121.217 33.9483 117.942 32.6981 111.393 32.1027C108.952 31.8646 106.69 31.0608 104.606 29.6915C102.582 28.3221 101.57 26.3277 101.57 23.7081C101.57 22.815 102.046 20.5229 102.998 16.8316C103.951 13.0808 104.427 10.6398 104.427 9.50861C104.427 8.37742 104.398 7.66298 104.338 7.3653C104.338 7.06762 104.189 6.76993 103.891 6.47225C103.594 6.17457 103.177 6.02573 102.641 6.02573C101.331 6.02573 99.9323 8.19881 98.4439 12.545C96.9554 16.8911 96.2112 20.6122 96.2112 23.7081C96.2112 26.804 96.9852 31.4478 98.5332 37.6396C98.6522 37.9968 98.7118 38.354 98.7118 38.7112C98.7118 40.4973 97.8187 41.3904 96.0326 41.3904C94.6038 41.3904 93.6512 40.4973 93.1749 38.7112C91.6269 32.5195 90.853 27.5184 90.853 23.7081C90.853 20.2549 91.6865 15.7897 93.3535 10.3124C94.187 7.57368 95.4075 5.28152 97.015 3.43589C98.682 1.59026 100.647 0.667446 102.909 0.667446C105.171 0.667446 106.868 1.41165 107.999 2.90006C109.19 4.38848 109.786 6.35318 109.786 8.79417C109.786 11.1756 109.309 14.212 108.357 17.9033C107.404 21.535 106.928 23.4699 106.928 23.7081C106.928 25.6132 110.202 26.8635 116.751 27.4589C119.192 27.697 121.425 28.5007 123.449 29.8701C125.533 31.2394 126.575 33.2339 126.575 35.8535C126.575 39.4852 124.699 43.2658 120.949 47.1952C117.257 51.0651 112.584 53 106.928 53C104.189 53 101.689 52.226 99.4262 50.6781C97.1638 49.1301 96.0326 47.8203 96.0326 46.7487C96.0326 44.9626 96.9257 44.0695 98.7118 44.0695C99.1285 44.0695 100.17 44.6649 101.837 45.8556C103.564 47.0464 105.261 47.6417 106.928 47.6417ZM134.833 41.0332C134.952 40.8546 135.22 39.5745 135.636 37.1931C136.113 34.8116 136.649 32.4897 137.244 30.2273C137.899 27.9054 139.03 25.7621 140.638 23.7974C142.305 21.8327 144.299 20.8503 146.621 20.8503C151.146 20.8503 154.956 22.041 158.052 24.4225C161.207 26.7444 162.785 29.751 162.785 33.4423C162.785 37.1335 163.291 40.4378 164.303 43.3551C165.315 46.2128 166.655 47.6417 168.322 47.6417C169.453 47.6417 170.852 47.2845 172.519 46.5701C175.198 45.4984 176.776 44.9626 177.252 44.9626C179.039 44.9626 179.932 45.8556 179.932 47.6417C179.932 48.9515 179.039 49.9041 177.252 50.4995C173.918 52.1665 170.912 53 168.233 53C165.613 53 163.44 51.8986 161.713 49.6957C159.987 47.4333 158.826 44.9328 158.231 42.1941C157.695 39.4555 157.427 36.5084 157.427 33.353C157.427 31.2692 156.415 29.5724 154.39 28.2626C152.366 26.8933 149.806 26.2086 146.71 26.2086C144.21 26.2086 142.245 30.1975 140.816 38.1754C140.221 41.2713 139.804 43.0574 139.566 43.5337C138.554 45.6175 135.785 47.6417 131.261 49.6064C130.189 50.0827 129.326 50.3209 128.671 50.3209C126.885 50.3209 125.992 49.4278 125.992 47.6417C125.992 46.5105 126.885 45.5877 128.671 44.8733C132.183 43.4444 134.237 42.1644 134.833 41.0332ZM196.367 8.70487C197.32 8.70487 198.302 9.15139 199.314 10.0444C200.326 10.878 200.832 11.771 200.832 12.7236C200.832 13.6166 200.416 14.3013 199.582 14.7776C198.808 15.2539 197.945 15.492 196.992 15.492C196.04 15.492 195.236 15.0753 194.581 14.2418C193.986 13.3487 193.688 12.3961 193.688 11.384C193.688 9.59792 194.581 8.70487 196.367 8.70487ZM188.33 41.9262C184.996 45.4984 181.602 48.0585 178.149 49.6064C177.077 50.0827 176.214 50.3209 175.559 50.3209C173.773 50.3209 172.88 49.4278 172.88 47.6417C172.88 46.5105 173.773 45.5877 175.559 44.8733C176.512 44.5161 177.762 43.8016 179.31 42.73C180.917 41.6583 181.989 40.8546 182.525 40.3187C183.061 39.7829 183.984 38.8006 185.293 37.3717C186.663 35.9428 187.734 34.8711 188.508 34.1567C189.282 33.3827 190.324 32.6088 191.634 31.8348C193.003 31.0608 194.254 30.6738 195.385 30.6738C197.707 30.6738 199.493 31.5073 200.743 33.1744C201.993 34.8414 202.738 36.687 202.976 38.7112C203.631 44.0695 204.672 46.7487 206.101 46.7487C207.233 46.7487 208.691 46.451 210.477 45.8556C212.263 45.2603 213.246 44.9626 213.424 44.9626C215.21 44.9626 216.103 45.8556 216.103 47.6417C216.103 48.9515 215.21 49.9041 213.424 50.4995C210.209 51.5711 207.59 52.107 205.566 52.107C203.601 52.107 201.993 51.2734 200.743 49.6064C199.493 47.9394 198.749 46.0938 198.51 44.0695C197.856 38.7112 196.814 36.0321 195.385 36.0321C194.611 36.0321 193.718 36.5382 192.706 37.5503C191.753 38.5029 190.979 39.2768 190.384 39.8722C189.788 40.408 189.104 41.0927 188.33 41.9262ZM252.086 45.677C252.086 45.677 253.039 45.4389 254.944 44.9626C256.73 44.9626 257.623 45.8556 257.623 47.6417C257.623 48.9515 256.73 49.9041 254.944 50.4995C253.872 50.8567 252.801 51.0353 251.729 51.0353C250.717 51.0353 249.735 50.7972 248.782 50.3209C247.829 49.8446 247.085 49.1301 246.549 48.1775C245.656 46.6296 245.001 44.9626 244.585 43.1765L244.228 41.6583C243.215 43.3849 240.745 45.4091 236.815 47.731C232.945 50.0529 228.808 51.2139 224.402 51.2139C222.02 51.2139 219.937 50.3209 218.151 48.5348C216.364 46.7487 215.471 44.6649 215.471 42.2834C215.471 36.5084 217.853 31.5073 222.616 27.2802C227.379 22.9936 232.201 20.8503 237.083 20.8503C239.762 20.8503 242.054 21.3564 243.96 22.3685C245.924 23.3211 246.907 24.3034 246.907 25.3155C246.907 27.1016 246.014 27.9947 244.228 27.9947C243.87 27.9947 243.007 27.697 241.638 27.1016C240.268 26.5063 238.75 26.2086 237.083 26.2086C233.868 26.2086 230.356 27.7863 226.545 30.9417C222.735 34.0376 220.83 37.8182 220.83 42.2834C220.83 43.1765 221.187 44.01 221.901 44.784C222.675 45.4984 223.509 45.8556 224.402 45.8556C227.915 45.8556 231.189 44.9328 234.225 43.0872C237.262 41.182 239.197 39.6341 240.03 38.4433C240.864 37.1931 241.548 36.0619 242.084 35.0498C242.62 34.0376 243.007 33.3827 243.245 33.0851C243.543 32.7278 244.138 32.5492 245.031 32.5492C245.924 32.5492 246.609 32.8767 247.085 33.5316C247.562 34.1865 248.008 35.2284 248.425 36.6572C248.842 38.0266 249.258 39.5745 249.675 41.3011C250.092 43.0276 250.449 44.1886 250.747 44.784C251.104 45.3793 251.55 45.677 252.086 45.677ZM309.908 50.4995C306.693 51.5711 304.193 52.107 302.407 52.107C300.621 52.107 299.222 51.4521 298.209 50.1422C297.197 48.8324 296.274 46.5998 295.441 43.4444C294.667 40.289 294.072 38.7112 293.655 38.7112C292.107 38.7112 290.47 41.0927 288.743 45.8556C288.088 47.6417 287.017 49.279 285.528 50.7674C284.04 52.2558 282.164 53 279.902 53C277.699 53 275.973 52.0176 274.722 50.0529C273.472 48.0882 272.728 45.9449 272.49 43.623C272.311 41.3011 272.013 39.1578 271.597 37.1931C271.18 35.2284 270.495 34.246 269.543 34.246C268.888 34.246 268.411 34.4246 268.114 34.7818C267.816 35.1391 267.548 35.4963 267.31 35.8535C267.131 36.1512 266.923 36.4786 266.685 36.8358C266.506 37.1335 266.268 37.5503 265.97 38.0861C265.732 38.6219 265.435 39.1875 265.077 39.7829C263.887 41.8667 262.934 43.4146 262.22 44.4267C260.791 46.6891 258.677 48.4157 255.879 49.6064C254.807 50.0827 253.944 50.3209 253.289 50.3209C251.503 50.3209 250.61 49.4278 250.61 47.6417C250.61 46.5105 251.563 45.5877 253.468 44.8733C255.373 44.1588 256.712 43.1467 257.486 41.8369C258.32 40.4676 259.243 38.9196 260.255 37.1931C261.267 35.4665 261.952 34.3055 262.309 33.7102C262.726 33.1148 263.232 32.4004 263.827 31.5669C264.422 30.6738 264.958 30.1082 265.435 29.8701C266.685 29.2152 268.054 28.8877 269.543 28.8877C271.984 28.8877 273.829 29.8701 275.079 31.8348C276.33 33.7995 277.044 35.9428 277.223 38.2647C277.461 40.5866 277.788 42.73 278.205 44.6947C278.622 46.6594 279.307 47.6417 280.259 47.6417C281.212 47.6417 282.105 46.8975 282.938 45.4091C283.831 43.9207 284.605 42.2834 285.26 40.4973C285.915 38.7112 286.957 37.074 288.386 35.5856C289.874 34.0972 291.631 33.353 293.655 33.353C295.203 33.353 296.334 33.74 297.048 34.5139C297.763 35.2284 298.269 35.794 298.567 36.2107C298.924 36.6275 299.222 37.2526 299.46 38.0861C299.757 38.9196 299.966 39.5448 300.085 39.9615C300.204 40.3187 300.382 40.9736 300.621 41.9262C301.335 45.2007 301.99 46.8082 302.585 46.7487C303.717 46.7487 305.175 46.451 306.961 45.8556C308.747 45.2603 309.73 44.9626 309.908 44.9626C311.694 44.9626 312.587 45.8556 312.587 47.6417C312.587 48.9515 311.694 49.9041 309.908 50.4995ZM3.5461 120.134L3.36749 119.062C3.36749 118.943 3.36749 118.824 3.36749 118.705C3.36749 116.919 4.26054 116.026 6.04663 116.026C7.65412 116.026 8.54716 116.829 8.72577 118.437C9.55928 125.819 11.2263 134.214 13.7268 143.621C16.2274 152.968 18.1325 157.642 19.4423 157.642C20.0377 157.642 20.6331 155.558 21.2284 151.39C21.8833 147.223 22.5085 142.549 23.1038 137.37C23.7587 132.13 24.2946 128.767 24.7113 127.278C25.783 123.706 27.7477 121.92 30.6054 121.92C32.332 121.92 33.612 122.396 34.4455 123.349C35.16 124.242 35.666 125.105 35.9637 125.939C36.3209 126.713 36.6186 127.367 36.8568 127.903C37.1544 128.439 37.9582 131.327 39.268 136.566C42.7211 150.616 45.043 157.642 46.2337 157.642C46.71 157.642 47.3649 155.23 48.1985 150.408C49.032 145.526 50.0739 139.275 51.3241 131.654C52.6339 124.033 53.646 118.854 54.3605 116.115C55.1344 113.317 55.7 111.709 56.0573 111.293C56.474 110.876 57.0694 110.667 57.8434 110.667C59.6295 110.667 60.5225 111.56 60.5225 113.347C60.5225 113.882 60.463 114.388 60.3439 114.865C58.8555 120.104 57.2182 128.35 55.4321 139.602C53.7056 150.855 52.5446 157.106 51.9492 158.356C51.3539 159.606 50.9074 160.47 50.6097 160.946C50.3715 161.363 49.8655 161.809 49.0915 162.286C48.3175 162.762 47.3649 163 46.2337 163C43.2569 163 41.0541 161.214 39.6252 157.642C38.6131 155.26 37.4521 151.48 36.1423 146.3C34.892 141.061 33.7609 136.596 32.7487 132.904C31.7962 129.154 31.0817 127.278 30.6054 127.278C30.1291 127.278 29.5933 129.392 28.9979 133.619C28.4621 137.786 27.8667 142.46 27.2118 147.64C26.6165 152.76 26.0807 155.945 25.6044 157.195C25.1281 158.445 24.7411 159.368 24.4434 159.964C24.1457 160.499 23.5206 161.154 22.568 161.928C21.675 162.643 20.6628 163 19.5316 163C18.46 163 17.5372 162.851 16.7632 162.553C16.0488 162.256 15.3939 161.75 14.7985 161.035C14.2031 160.261 13.3398 158.803 12.2087 156.659C11.137 154.516 9.58905 149.485 7.56481 141.567C5.60011 133.649 4.26054 126.504 3.5461 120.134ZM83.3601 118.705C84.3127 118.705 85.295 119.151 86.3071 120.044C87.3193 120.878 87.8253 121.771 87.8253 122.724C87.8253 123.617 87.4086 124.301 86.5751 124.778C85.8011 125.254 84.9378 125.492 83.9852 125.492C83.0326 125.492 82.2289 125.075 81.574 124.242C80.9786 123.349 80.6809 122.396 80.6809 121.384C80.6809 119.598 81.574 118.705 83.3601 118.705ZM75.3227 151.926C71.9886 155.498 68.595 158.058 65.1419 159.606C64.0703 160.083 63.207 160.321 62.5521 160.321C60.766 160.321 59.8729 159.428 59.8729 157.642C59.8729 156.511 60.766 155.588 62.5521 154.873C63.5047 154.516 64.7549 153.802 66.3029 152.73C67.9104 151.658 68.982 150.855 69.5179 150.319C70.0537 149.783 70.9765 148.801 72.2863 147.372C73.6556 145.943 74.7273 144.871 75.5013 144.157C76.2752 143.383 77.3171 142.609 78.6269 141.835C79.9963 141.061 81.2465 140.674 82.3777 140.674C84.6997 140.674 86.4857 141.507 87.736 143.174C88.9863 144.841 89.7305 146.687 89.9686 148.711C90.6235 154.07 91.6654 156.749 93.0943 156.749C94.2255 156.749 95.6841 156.451 97.4702 155.856C99.2563 155.26 100.239 154.963 100.417 154.963C102.203 154.963 103.096 155.856 103.096 157.642C103.096 158.952 102.203 159.904 100.417 160.499C97.2023 161.571 94.5827 162.107 92.5585 162.107C90.5938 162.107 88.9863 161.273 87.736 159.606C86.4857 157.939 85.7415 156.094 85.5034 154.07C84.8485 148.711 83.8066 146.032 82.3777 146.032C81.6038 146.032 80.7107 146.538 79.6986 147.55C78.746 148.503 77.972 149.277 77.3767 149.872C76.7813 150.408 76.0966 151.093 75.3227 151.926ZM121.754 138.62C129.137 131.237 132.828 123.885 132.828 116.562C132.828 110.132 131.339 106.917 128.363 106.917C126.815 106.917 125.267 109.09 123.719 113.436C122.052 118.08 121.218 123.885 121.218 130.85C121.218 133.768 121.397 136.357 121.754 138.62ZM153.904 144.067C157.238 141.567 159.917 138.679 161.941 135.405C163.965 132.13 164.978 129.005 164.978 126.028C164.978 123.051 164.739 120.67 164.263 118.883C163.787 117.097 163.192 115.847 162.477 115.133C161.167 113.823 159.917 113.168 158.726 113.168C157.774 113.168 156.881 113.734 156.047 114.865C155.273 115.936 154.648 117.097 154.172 118.348C153.041 121.324 152.475 125.432 152.475 130.672C152.475 135.911 152.951 140.376 153.904 144.067ZM119.432 147.908C114.55 151.896 109.519 155.29 104.34 158.088C101.601 159.577 99.7256 160.321 98.7135 160.321C96.9274 160.321 96.0344 159.428 96.0344 157.642C96.0344 156.511 96.8381 155.647 98.4456 155.052C100.053 154.457 102.643 153.057 106.215 150.855C109.787 148.652 113.479 145.943 117.289 142.728C116.336 139.275 115.86 135.316 115.86 130.85C115.86 122.337 117.051 115.341 119.432 109.864C121.814 104.327 124.701 101.558 128.095 101.558C134.822 101.558 138.186 106.411 138.186 116.115C138.186 125.819 133.304 135.226 123.54 144.335C125.624 148.443 129.613 150.497 135.507 150.497C140.091 150.497 144.676 149.307 149.26 146.925C147.831 142.639 147.117 136.983 147.117 129.957C147.117 122.932 148.218 117.484 150.421 113.615C152.624 109.745 155.303 107.81 158.458 107.81C161.614 107.81 164.382 109.209 166.764 112.007C169.145 114.746 170.336 119.241 170.336 125.492C170.336 129.719 169.026 133.976 166.406 138.263C163.787 142.49 160.304 146.092 155.958 149.068C157.863 152.462 160.066 154.754 162.566 155.945C165.067 157.076 168.55 157.642 173.015 157.642C174.503 157.642 176.796 157.195 179.891 156.302C182.987 155.409 184.625 154.963 184.803 154.963C186.589 154.963 187.482 155.856 187.482 157.642C187.482 158.952 186.589 159.904 184.803 160.499C179.802 162.166 175.873 163 173.015 163C167.657 163 163.281 162.166 159.887 160.499C156.494 158.832 153.666 155.945 151.403 151.837C146.164 154.516 140.865 155.856 135.507 155.856C127.946 155.856 122.588 153.206 119.432 147.908ZM203.911 118.705C204.864 118.705 205.846 119.151 206.858 120.044C207.87 120.878 208.376 121.771 208.376 122.724C208.376 123.617 207.959 124.301 207.126 124.778C206.352 125.254 205.489 125.492 204.536 125.492C203.584 125.492 202.78 125.075 202.125 124.242C201.529 123.349 201.232 122.396 201.232 121.384C201.232 119.598 202.125 118.705 203.911 118.705ZM195.874 151.926C192.539 155.498 189.146 158.058 185.693 159.606C184.621 160.083 183.758 160.321 183.103 160.321C181.317 160.321 180.424 159.428 180.424 157.642C180.424 156.511 181.317 155.588 183.103 154.873C184.056 154.516 185.306 153.802 186.854 152.73C188.461 151.658 189.533 150.855 190.069 150.319C190.605 149.783 191.527 148.801 192.837 147.372C194.207 145.943 195.278 144.871 196.052 144.157C196.826 143.383 197.868 142.609 199.178 141.835C200.547 141.061 201.797 140.674 202.929 140.674C205.251 140.674 207.037 141.507 208.287 143.174C209.537 144.841 210.281 146.687 210.52 148.711C211.174 154.07 212.216 156.749 213.645 156.749C214.776 156.749 216.235 156.451 218.021 155.856C219.807 155.26 220.79 154.963 220.968 154.963C222.754 154.963 223.647 155.856 223.647 157.642C223.647 158.952 222.754 159.904 220.968 160.499C217.753 161.571 215.134 162.107 213.109 162.107C211.145 162.107 209.537 161.273 208.287 159.606C207.037 157.939 206.292 156.094 206.054 154.07C205.399 148.711 204.357 146.032 202.929 146.032C202.155 146.032 201.262 146.538 200.249 147.55C199.297 148.503 198.523 149.277 197.928 149.872C197.332 150.408 196.648 151.093 195.874 151.926ZM259.63 155.677C259.63 155.677 260.583 155.439 262.488 154.963C264.274 154.963 265.167 155.856 265.167 157.642C265.167 158.952 264.274 159.904 262.488 160.499C261.416 160.857 260.345 161.035 259.273 161.035C258.261 161.035 257.278 160.797 256.326 160.321C255.373 159.845 254.629 159.13 254.093 158.178C253.2 156.63 252.545 154.963 252.129 153.176L251.771 151.658C250.759 153.385 248.288 155.409 244.359 157.731C240.489 160.053 236.351 161.214 231.946 161.214C229.564 161.214 227.48 160.321 225.694 158.535C223.908 156.749 223.015 154.665 223.015 152.283C223.015 146.508 225.397 141.507 230.16 137.28C234.922 132.994 239.745 130.85 244.627 130.85C247.306 130.85 249.598 131.356 251.503 132.368C253.468 133.321 254.45 134.303 254.45 135.316C254.45 137.102 253.557 137.995 251.771 137.995C251.414 137.995 250.551 137.697 249.181 137.102C247.812 136.506 246.294 136.209 244.627 136.209C241.412 136.209 237.899 137.786 234.089 140.942C230.279 144.038 228.373 147.818 228.373 152.283C228.373 153.176 228.731 154.01 229.445 154.784C230.219 155.498 231.053 155.856 231.946 155.856C235.458 155.856 238.733 154.933 241.769 153.087C244.806 151.182 246.74 149.634 247.574 148.443C248.407 147.193 249.092 146.062 249.628 145.05C250.164 144.038 250.551 143.383 250.789 143.085C251.087 142.728 251.682 142.549 252.575 142.549C253.468 142.549 254.153 142.877 254.629 143.532C255.105 144.186 255.552 145.228 255.969 146.657C256.385 148.027 256.802 149.575 257.219 151.301C257.636 153.028 257.993 154.189 258.291 154.784C258.648 155.379 259.094 155.677 259.63 155.677ZM334.241 142.46C338.29 142.46 340.671 145.318 341.386 151.033C341.445 151.331 341.505 151.867 341.564 152.641C341.683 153.355 341.773 153.921 341.832 154.337C341.892 154.754 341.981 155.082 342.1 155.32C342.1 155.558 342.16 155.796 342.279 156.034C342.457 156.511 342.755 156.749 343.172 156.749C344.303 156.749 345.762 156.451 347.548 155.856C349.334 155.26 350.316 154.963 350.495 154.963C352.281 154.963 353.174 155.856 353.174 157.642C353.174 158.952 352.281 159.904 350.495 160.499C347.28 161.571 344.779 162.107 342.993 162.107C339.123 162.107 336.801 158.654 336.027 151.748C335.67 149.128 335.075 147.818 334.241 147.818C332.455 147.818 330.193 149.902 327.454 154.07C326.442 155.617 325.103 157.046 323.436 158.356C321.768 159.666 320.072 160.321 318.345 160.321C316.619 160.321 315.249 159.725 314.237 158.535C313.225 157.344 312.57 156.213 312.272 155.141C311.915 153.95 311.35 151.361 310.576 147.372C309.802 143.383 309.266 141.269 308.968 141.031C308.73 140.793 308.522 140.674 308.343 140.674C307.51 140.674 306.765 141.21 306.11 142.281C305.515 143.293 304.83 144.722 304.056 146.568C303.282 148.414 302.538 150.319 301.824 152.283C301.169 154.189 300.633 155.617 300.216 156.57C299.8 157.463 299.234 158.505 298.52 159.696C297.21 161.899 295.424 163 293.161 163C291.613 163 290.303 162.464 289.232 161.393C288.16 160.321 287.327 158.952 286.731 157.284C285.66 153.95 285.094 150.557 285.035 147.104C285.035 143.591 284.677 140.912 283.963 139.066C283.308 137.161 282.504 136.209 281.552 136.209C278.456 136.209 276.134 138.114 274.586 141.924C273.871 143.77 273.097 146.389 272.264 149.783C271.073 154.367 268.245 157.612 263.78 159.517C262.827 160.053 261.845 160.321 260.833 160.321C259.047 160.321 258.154 159.428 258.154 157.642C258.154 156.511 259.047 155.588 260.833 154.873C261.547 154.576 261.934 154.427 261.994 154.427C262.113 154.367 262.351 154.248 262.708 154.07C263.066 153.891 263.304 153.772 263.423 153.712C263.542 153.593 263.75 153.444 264.048 153.266C264.405 153.028 264.643 152.819 264.762 152.641C264.941 152.403 265.149 152.135 265.387 151.837C265.685 151.539 265.894 151.242 266.013 150.944C266.489 150.051 266.906 148.89 267.263 147.461C267.62 146.032 267.948 144.841 268.245 143.889C268.543 142.936 269.108 141.478 269.942 139.513C270.776 137.489 271.639 135.97 272.532 134.958C273.425 133.946 274.645 133.023 276.193 132.19C277.801 131.297 279.736 130.85 281.998 130.85C284.32 130.85 286.285 132.19 287.892 134.869C289.559 137.489 290.393 141.507 290.393 146.925C290.393 148.83 290.601 151.093 291.018 153.712C291.494 156.332 292.209 157.642 293.161 157.642C293.638 157.642 294.144 157.017 294.679 155.766C295.215 154.457 295.662 153.355 296.019 152.462C296.376 151.509 296.793 150.378 297.269 149.068C299.055 144.008 300.812 140.465 302.538 138.441C304.265 136.357 306.2 135.316 308.343 135.316C310.844 135.316 312.63 136.447 313.701 138.709C314.594 140.674 315.219 142.609 315.577 144.514C316.767 151.48 317.631 154.963 318.167 154.963C319.953 154.963 322.215 152.879 324.954 148.711C325.966 147.163 327.305 145.734 328.972 144.425C330.639 143.115 332.396 142.46 334.241 142.46ZM348.798 154.873C352.013 153.563 354.543 152.194 356.389 150.765C358.235 149.277 360.497 147.134 363.176 144.335C365.855 141.537 367.612 139.781 368.445 139.066C371.303 136.566 374.339 135.316 377.554 135.316C379.519 135.316 381.662 135.792 383.984 136.744C386.366 137.697 388.568 139.394 390.593 141.835C392.617 144.276 393.629 147.193 393.629 150.587C393.629 153.921 391.664 156.838 387.735 159.339C383.806 161.78 378.626 163 372.196 163C370.41 163 369.517 162.107 369.517 160.321C369.517 158.535 370.41 157.642 372.196 157.642C377.078 157.642 380.978 156.868 383.895 155.32C386.812 153.712 388.271 152.105 388.271 150.497C388.271 148.294 387.556 146.389 386.127 144.782C383.627 142.043 380.769 140.674 377.554 140.674C375.709 140.674 373.893 141.448 372.107 142.996C371.571 143.472 369.844 145.199 366.927 148.175C364.069 151.152 361.688 153.385 359.783 154.873C357.937 156.362 355.794 157.642 353.353 158.713C350.971 159.785 349.453 160.321 348.798 160.321C347.012 160.321 346.119 159.428 346.119 157.642C346.119 156.511 347.012 155.588 348.798 154.873Z" fill="white"/>
</g>
<defs>
<filter id="filter0_d" x="0.950062" y="0.66745" width="395.096" height="167.167" filterUnits="userSpaceOnUse" color-interpolation-filters="sRGB">
<feFlood flood-opacity="0" result="BackgroundImageFix"/>
<feColorMatrix in="SourceAlpha" type="matrix" values="0 0 0 0 0 0 0 0 0 0 0 0 0 0 0 0 0 0 127 0" result="hardAlpha"/>
<feOffset dy="2.41743"/>
<feGaussianBlur stdDeviation="1.20872"/>
<feComposite in2="hardAlpha" operator="out"/>
<feColorMatrix type="matrix" values="0 0 0 0 0 0 0 0 0 0 0 0 0 0 0 0 0 0 0.25 0"/>
<feBlend mode="normal" in2="BackgroundImageFix" result="effect1_dropShadow"/>
<feBlend mode="normal" in="SourceGraphic" in2="effect1_dropShadow" result="shape"/>
</filter>
</defs>
</svg>
