<svg width="95" height="49" viewBox="0 0 95 49" fill="none" xmlns="http://www.w3.org/2000/svg">
<path d="M5.49204 0.83396C3.74349 0.00992775 1.65799 0.759402 0.83396 2.50796C0.00992775 4.25651 0.759402 6.34201 2.50796 7.16604L5.49204 0.83396ZM47.5 24.5L46.008 27.666C46.9528 28.1113 48.0472 28.1113 48.992 27.666L47.5 24.5ZM92.492 7.16604C94.2406 6.34201 94.9901 4.25651 94.166 2.50796C93.342 0.759402 91.2565 0.00992775 89.508 0.83396L92.492 7.16604ZM2.50796 7.16604L46.008 27.666L48.992 21.334L5.49204 0.83396L2.50796 7.16604ZM48.992 27.666L92.492 7.16604L89.508 0.83396L46.008 21.334L48.992 27.666Z" fill="white"/>
<path d="M26.5372 30.8557C24.8007 30.0067 22.7046 30.7262 21.8557 32.4628C21.0067 34.1993 21.7262 36.2954 23.4628 37.1443L26.5372 30.8557ZM47.5 45L45.9628 48.1443C46.9327 48.6186 48.0673 48.6186 49.0372 48.1443L47.5 45ZM71.5372 37.1443C73.2738 36.2954 73.9933 34.1993 73.1443 32.4628C72.2954 30.7262 70.1993 30.0067 68.4628 30.8557L71.5372 37.1443ZM23.4628 37.1443L45.9628 48.1443L49.0372 41.8557L26.5372 30.8557L23.4628 37.1443ZM49.0372 48.1443L71.5372 37.1443L68.4628 30.8557L45.9628 41.8557L49.0372 48.1443Z" fill="white" fill-opacity="0.49"/>
</svg>
