<svg width="26" height="45" viewBox="0 0 26 45" fill="none" xmlns="http://www.w3.org/2000/svg">
<path d="M24.5085 6.44074C25.8565 5.05531 25.8262 2.83944 24.4407 1.49146C23.0553 0.143474 20.8394 0.173829 19.4915 1.55926L24.5085 6.44074ZM4 22.5L1.49146 20.0593C0.169515 21.4179 0.169515 23.5821 1.49146 24.9407L4 22.5ZM19.4915 43.4407C20.8394 44.8262 23.0553 44.8565 24.4407 43.5085C25.8262 42.1606 25.8565 39.9447 24.5085 38.5593L19.4915 43.4407ZM19.4915 1.55926L1.49146 20.0593L6.50854 24.9407L24.5085 6.44074L19.4915 1.55926ZM1.49146 24.9407L19.4915 43.4407L24.5085 38.5593L6.50854 20.0593L1.49146 24.9407Z" fill="#F06449"/>
</svg>
