<svg width="26" height="45" viewBox="0 0 26 45" fill="none" xmlns="http://www.w3.org/2000/svg">
<path d="M1.49146 38.5593C0.143474 39.9447 0.173829 42.1606 1.55926 43.5085C2.94469 44.8565 5.16056 44.8262 6.50854 43.4407L1.49146 38.5593ZM22 22.5L24.5085 24.9407C25.8305 23.5821 25.8305 21.4179 24.5085 20.0593L22 22.5ZM6.50854 1.55926C5.16056 0.173828 2.94469 0.143475 1.55926 1.49146C0.173829 2.83944 0.143475 5.05531 1.49146 6.44074L6.50854 1.55926ZM6.50854 43.4407L24.5085 24.9407L19.4915 20.0593L1.49146 38.5593L6.50854 43.4407ZM24.5085 20.0593L6.50854 1.55926L1.49146 6.44074L19.4915 24.9407L24.5085 20.0593Z" fill="#F06449"/>
</svg>
